<svg width="48" height="48" viewBox="0 0 48 48" fill="none" xmlns="http://www.w3.org/2000/svg">
  <defs>
    <linearGradient id="kivo-grad" x1="4" y1="4" x2="44" y2="44" gradientUnits="userSpaceOnUse">
      <stop stop-color="#6366F1" />
      <stop offset="0.5" stop-color="#4F46E5" />
      <stop offset="1" stop-color="#7C3AED" />
    </linearGradient>
  </defs>
  <rect x="3" y="3" width="42" height="42" rx="12" fill="url(#kivo-grad)" />
  <rect x="12" y="12" width="6.5" height="24" rx="3.25" fill="#FFFFFF" />
  <path d="M21.5 24.5C21.5 22.8 22.6 21.2 24.2 20.2L32.2 15C33.8 14 36 15.2 36 17.1C36 18.2 35.4 19.3 34.4 20L27.5 24.5L34.6 30.2C35.6 31 36 32.2 36 33.3C36 35.2 33.8 36.3 32.2 35.1L24.2 28.8C22.6 27.8 21.5 26.2 21.5 24.5Z" fill="#F1F5F9" />
  <circle cx="21.5" cy="24.5" r="3" fill="#38BDF8" />
</svg>
